<svg xmlns="http://www.w3.org/2000/svg" viewBox="0 0 80 80" width="80" height="80">
  <rect width="80" height="80" rx="18" fill="#1a3a2a"/>
  <path d="M40 18c-8 2-14 8-16 16-2 8 0 14 4 18s10 6 12 6c2 0 8-2 12-6s6-10 4-18c-2-8-8-14-16-16z" fill="none" stroke="rgba(255,255,255,0.7)" stroke-width="1.5" stroke-linecap="round"/>
  <path d="M40 22c6 2 10 6 12 12 1 4 0 8-2 12" fill="none" stroke="rgba(255,255,255,0.4)" stroke-width="1.2" stroke-linecap="round"/>
  <path d="M34 52c-2-2-4-6-4-12 0-4 2-8 6-12" fill="none" stroke="rgba(255,255,255,0.4)" stroke-width="1.2" stroke-linecap="round"/>
  <line x1="40" y1="30" x2="40" y2="50" stroke="rgba(255,255,255,0.7)" stroke-width="1.5" stroke-linecap="round"/>
  <line x1="40" y1="38" x2="48" y2="34" stroke="rgba(255,255,255,0.5)" stroke-width="1.2" stroke-linecap="round"/>
  <line x1="40" y1="42" x2="33" y2="38" stroke="rgba(255,255,255,0.5)" stroke-width="1.2" stroke-linecap="round"/>
</svg>
